<svg width="600" height="400" viewBox="0 0 600 400" xmlns="http://www.w3.org/2000/svg">
  <defs>
    <!-- Sky gradient -->
    <linearGradient id="skyGradient" x1="0%" y1="0%" x2="0%" y2="100%">
      <stop offset="0%" style="stop-color:#87CEEB"/>
      <stop offset="100%" style="stop-color:#B0E0E6"/>
    </linearGradient>
    
    <!-- Building shadow -->
    <filter id="shadow" x="-50%" y="-50%" width="200%" height="200%">
      <feDropShadow dx="4" dy="4" stdDeviation="3" flood-color="#000000" flood-opacity="0.4"/>
    </filter>
    
    <!-- Chair shadow -->
    <filter id="chairShadow" x="-50%" y="-50%" width="200%" height="200%">
      <feDropShadow dx="2" dy="2" stdDeviation="1" flood-color="#000000" flood-opacity="0.3"/>
    </filter>
  </defs>
  
  <!-- Background -->
  <rect width="600" height="400" fill="url(#skyGradient)"/>
  
  <!-- Ground/Terrace -->
  <rect x="0" y="300" width="600" height="100" fill="#E6E6FA"/>
  <rect x="0" y="295" width="600" height="5" fill="#D3D3D3"/>
  
  <!-- Parlement Bruxellois - More detailed classical building -->
  <!-- Main building base -->
  <rect x="120" y="160" width="360" height="140" fill="#D2B48C" filter="url(#shadow)"/>
  
  <!-- Building wings -->
  <rect x="100" y="180" width="40" height="120" fill="#C8A882"/>
  <rect x="460" y="180" width="40" height="120" fill="#C8A882"/>
  
  <!-- Central pediment -->
  <polygon points="200,160 400,160 300,100" fill="#B8860B"/>
  
  <!-- Colonnade -->
  <rect x="150" y="180" width="12" height="100" fill="#F5F5DC"/>
  <rect x="175" y="180" width="12" height="100" fill="#F5F5DC"/>
  <rect x="200" y="180" width="12" height="100" fill="#F5F5DC"/>
  <rect x="225" y="180" width="12" height="100" fill="#F5F5DC"/>
  <rect x="250" y="180" width="12" height="100" fill="#F5F5DC"/>
  <rect x="275" y="180" width="12" height="100" fill="#F5F5DC"/>
  <rect x="300" y="180" width="12" height="100" fill="#F5F5DC"/>
  <rect x="325" y="180" width="12" height="100" fill="#F5F5DC"/>
  <rect x="350" y="180" width="12" height="100" fill="#F5F5DC"/>
  <rect x="375" y="180" width="12" height="100" fill="#F5F5DC"/>
  <rect x="400" y="180" width="12" height="100" fill="#F5F5DC"/>
  <rect x="425" y="180" width="12" height="100" fill="#F5F5DC"/>
  <rect x="450" y="180" width="12" height="100" fill="#F5F5DC"/>
  
  <!-- Column capitals -->
  <rect x="148" y="178" width="16" height="6" fill="#E6E6E6"/>
  <rect x="173" y="178" width="16" height="6" fill="#E6E6E6"/>
  <rect x="198" y="178" width="16" height="6" fill="#E6E6E6"/>
  <rect x="223" y="178" width="16" height="6" fill="#E6E6E6"/>
  <rect x="248" y="178" width="16" height="6" fill="#E6E6E6"/>
  <rect x="273" y="178" width="16" height="6" fill="#E6E6E6"/>
  <rect x="298" y="178" width="16" height="6" fill="#E6E6E6"/>
  <rect x="323" y="178" width="16" height="6" fill="#E6E6E6"/>
  <rect x="348" y="178" width="16" height="6" fill="#E6E6E6"/>
  <rect x="373" y="178" width="16" height="6" fill="#E6E6E6"/>
  <rect x="398" y="178" width="16" height="6" fill="#E6E6E6"/>
  <rect x="423" y="178" width="16" height="6" fill="#E6E6E6"/>
  <rect x="448" y="178" width="16" height="6" fill="#E6E6E6"/>
  
  <!-- Main entrance -->
  <rect x="280" y="220" width="40" height="80" fill="#654321"/>
  <polygon points="280,240 320,240 300,220" fill="#8B4513"/>
  
  <!-- Entrance steps -->
  <rect x="270" y="295" width="60" height="5" fill="#A9A9A9"/>
  <rect x="265" y="290" width="70" height="5" fill="#B8B8B8"/>
  <rect x="260" y="285" width="80" height="5" fill="#C7C7C7"/>
  
  <!-- Windows -->
  <rect x="140" y="200" width="8" height="15" fill="#4169E1"/>
  <rect x="160" y="200" width="8" height="15" fill="#4169E1"/>
  <rect x="340" y="200" width="8" height="15" fill="#4169E1"/>
  <rect x="360" y="200" width="8" height="15" fill="#4169E1"/>
  <rect x="380" y="200" width="8" height="15" fill="#4169E1"/>
  <rect x="420" y="200" width="8" height="15" fill="#4169E1"/>
  
  <!-- Title "BRUXELLES" in vintage postcard style -->
  <text x="300" y="45" font-family="serif" font-size="42" font-weight="bold" text-anchor="middle" fill="#2F4F4F" stroke="#FFFFFF" stroke-width="1">BRUXELLES</text>
  
  <!-- Beach chairs with politicians (more detailed) -->
  <!-- 1. MR - Blue -->
  <g filter="url(#chairShadow)">
    <polygon points="50,320 75,320 80,350 45,350" fill="#0066CC"/>
    <rect x="47" y="335" width="31" height="4" fill="#004499"/>
    <rect x="47" y="325" width="31" height="4" fill="#004499"/>
    <!-- Character -->
    <circle cx="62" cy="315" r="10" fill="#FFE4B5"/>
    <circle cx="62" cy="312" r="4" fill="#8B4513"/>
    <rect x="57" y="320" width="10" height="15" fill="#87CEEB"/>
    <!-- Cocktail -->
    <circle cx="70" cy="340" r="4" fill="#FF6347" opacity="0.9"/>
    <line x1="70" y1="340" x2="72" y2="335" stroke="#000" stroke-width="1"/>
  </g>
  
  <!-- 2. PS - Red -->
  <g filter="url(#chairShadow)">
    <polygon points="100,320 125,320 130,350 95,350" fill="#DC143C"/>
    <rect x="97" y="335" width="31" height="4" fill="#B71C1C"/>
    <rect x="97" y="325" width="31" height="4" fill="#B71C1C"/>
    <!-- Character -->
    <circle cx="112" cy="315" r="10" fill="#FFE4B5"/>
    <circle cx="112" cy="312" r="4" fill="#654321"/>
    <rect x="107" y="320" width="10" height="15" fill="#FFF"/>
    <!-- Cocktail -->
    <circle cx="120" cy="340" r="4" fill="#00FF7F" opacity="0.9"/>
    <line x1="120" y1="340" x2="122" y2="335" stroke="#000" stroke-width="1"/>
  </g>
  
  <!-- 3. Les Engagés - Turquoise -->
  <g filter="url(#chairShadow)">
    <polygon points="150,320 175,320 180,350 145,350" fill="#40E0D0"/>
    <rect x="147" y="335" width="31" height="4" fill="#20B2AA"/>
    <rect x="147" y="325" width="31" height="4" fill="#20B2AA"/>
    <!-- Character -->
    <circle cx="162" cy="315" r="10" fill="#FFE4B5"/>
    <circle cx="162" cy="312" r="4" fill="#8B4513"/>
    <rect x="157" y="320" width="10" height="15" fill="#40E0D0"/>
    <!-- Cocktail -->
    <circle cx="170" cy="340" r="4" fill="#FF1493" opacity="0.9"/>
    <line x1="170" y1="340" x2="172" y2="335" stroke="#000" stroke-width="1"/>
  </g>
  
  <!-- 4. Groen - Green -->
  <g filter="url(#chairShadow)">
    <polygon points="200,320 225,320 230,350 195,350" fill="#228B22"/>
    <rect x="197" y="335" width="31" height="4" fill="#006400"/>
    <rect x="197" y="325" width="31" height="4" fill="#006400"/>
    <!-- Character -->
    <circle cx="212" cy="315" r="10" fill="#FFE4B5"/>
    <circle cx="212" cy="312" r="4" fill="#654321"/>
    <rect x="207" y="320" width="10" height="15" fill="#228B22"/>
    <!-- Cocktail -->
    <circle cx="220" cy="340" r="4" fill="#00BFFF" opacity="0.9"/>
    <line x1="220" y1="340" x2="222" y2="335" stroke="#000" stroke-width="1"/>
  </g>
  
  <!-- 5. Open VLD - Light Blue -->
  <g filter="url(#chairShadow)">
    <polygon points="250,320 275,320 280,350 245,350" fill="#87CEFA"/>
    <rect x="247" y="335" width="31" height="4" fill="#4682B4"/>
    <rect x="247" y="325" width="31" height="4" fill="#4682B4"/>
    <!-- Character -->
    <circle cx="262" cy="315" r="10" fill="#FFE4B5"/>
    <circle cx="262" cy="312" r="4" fill="#8B4513"/>
    <rect x="257" y="320" width="10" height="15" fill="#87CEFA"/>
    <!-- Cocktail -->
    <circle cx="270" cy="340" r="4" fill="#FFD700" opacity="0.9"/>
    <line x1="270" y1="340" x2="272" y2="335" stroke="#000" stroke-width="1"/>
  </g>
  
  <!-- 6. Vooruit - Red -->
  <g filter="url(#chairShadow)">
    <polygon points="325,320 350,320 355,350 320,350" fill="#DC143C"/>
    <rect x="322" y="335" width="31" height="4" fill="#B71C1C"/>
    <rect x="322" y="325" width="31" height="4" fill="#B71C1C"/>
    <!-- Character -->
    <circle cx="337" cy="315" r="10" fill="#FFE4B5"/>
    <circle cx="337" cy="312" r="4" fill="#654321"/>
    <rect x="332" y="320" width="10" height="15" fill="#FFF"/>
    <!-- Cocktail -->
    <circle cx="345" cy="340" r="4" fill="#FF4500" opacity="0.9"/>
    <line x1="345" y1="340" x2="347" y2="335" stroke="#000" stroke-width="1"/>
  </g>
  
  <!-- 7. N-VA - Yellow and Black stripes -->
  <g filter="url(#chairShadow)">
    <polygon points="375,320 400,320 405,350 370,350" fill="#FFD700"/>
    <rect x="372" y="335" width="31" height="4" fill="#FFA500"/>
    <rect x="372" y="325" width="31" height="4" fill="#FFA500"/>
    <!-- Black stripes -->
    <rect x="375" y="320" width="25" height="3" fill="#000"/>
    <rect x="375" y="327" width="25" height="3" fill="#000"/>
    <rect x="375" y="334" width="25" height="3" fill="#000"/>
    <rect x="375" y="341" width="25" height="3" fill="#000"/>
    <rect x="375" y="348" width="25" height="2" fill="#000"/>
    <!-- Character -->
    <circle cx="387" cy="315" r="10" fill="#FFE4B5"/>
    <circle cx="387" cy="312" r="4" fill="#8B4513"/>
    <rect x="382" y="320" width="10" height="15" fill="#FFD700"/>
    <!-- Cocktail -->
    <circle cx="395" cy="340" r="4" fill="#9370DB" opacity="0.9"/>
    <line x1="395" y1="340" x2="397" y2="335" stroke="#000" stroke-width="1"/>
  </g>
  
  <!-- Beach umbrellas for extra summer vibe -->
  <circle cx="450" cy="300" r="25" fill="#FF69B4" opacity="0.7"/>
  <line x1="450" y1="325" x2="450" y2="350" stroke="#8B4513" stroke-width="3"/>
  
  <circle cx="520" cy="305" r="22" fill="#32CD32" opacity="0.7"/>
  <line x1="520" y1="327" x2="520" y2="350" stroke="#8B4513" stroke-width="3"/>
  
  <!-- Sun -->
  <circle cx="500" cy="65" r="30" fill="#FFD700"/>
  <g stroke="#FFD700" stroke-width="3">
    <line x1="475" y1="40" x2="480" y2="45"/>
    <line x1="520" y1="45" x2="525" y2="40"/>
    <line x1="475" y1="90" x2="480" y2="85"/>
    <line x1="520" y1="85" x2="525" y2="90"/>
    <line x1="460" y1="65" x2="470" y2="65"/>
    <line x1="530" y1="65" x2="540" y2="65"/>
    <line x1="477" y1="47" x2="480" y2="50"/>
    <line x1="520" y1="50" x2="523" y2="47"/>
  </g>
  
  <!-- Clouds -->
  <ellipse cx="120" cy="75" rx="30" ry="18" fill="#FFFFFF" opacity="0.9"/>
  <ellipse cx="145" cy="70" rx="25" ry="15" fill="#FFFFFF" opacity="0.9"/>
  <ellipse cx="320" cy="80" rx="35" ry="20" fill="#FFFFFF" opacity="0.9"/>
  <ellipse cx="350" cy="75" rx="28" ry="17" fill="#FFFFFF" opacity="0.9"/>
  
  <!-- Postcard border -->
  <rect x="5" y="5" width="590" height="390" fill="none" stroke="#2F4F4F" stroke-width="3"/>
  
  <!-- Vintage postcard message -->
  <text x="300" y="385" font-family="serif" font-size="14" text-anchor="middle" fill="#2F4F4F" font-style="italic">
    "Pendant qu'ils bronzent, Bruxelles attend..."
  </text>
</svg>